<?xml version="1.0" encoding="UTF-8"?>
<svg version="1.1" xmlns="http://www.w3.org/2000/svg" width="190" height="120">
<path d="M0 0 C0.99515625 -0.03738281 1.9903125 -0.07476563 3.015625 -0.11328125 C12.96118231 -0.23013506 19.95400859 3.32730724 27.5 9.6875 C28.33789062 10.38488281 29.17578125 11.08226562 30.0390625 11.80078125 C30.64492187 12.32027344 31.25078125 12.83976563 31.875 13.375 C32.29910156 12.99988281 32.72320312 12.62476563 33.16015625 12.23828125 C46.15246224 0.90213734 55.69524068 -0.73850653 72.96875 0.08935547 C78.86124281 0.66850673 83.16824879 2.7648898 87.875 6.375 C88.61234375 6.90480469 89.3496875 7.43460937 90.109375 7.98046875 C97.68869622 13.97839024 104.28515153 22.69644878 105.875 32.375 C107.86248039 51.64139149 101.62807311 67.3154569 89.5625 82.234375 C81.14443862 92.00148468 71.01011406 98.84525483 60.09936523 105.48217773 C56.48651797 107.69053116 52.97823802 109.97583426 49.54296875 112.453125 C48.83430664 112.96117676 48.12564453 113.46922852 47.39550781 113.99267578 C46.04224023 114.97193903 44.69844167 115.96447212 43.36621094 116.97216797 C40.25949974 119.21175795 38.22265277 120.31504644 34.38671875 120.9765625 C29.79494174 120.18998446 26.99541838 118.29521957 23.25 115.625 C16.66702355 111.13553663 9.95869064 107.06824863 3 103.1875 C-18.27220993 91.17343426 -34.45153394 77.28323722 -42.125 53.375 C-44.98259584 41.18500257 -42.24190915 28.63719132 -35.9140625 17.9453125 C-26.68355669 4.68401812 -15.56381942 0.21671141 0 0 Z " fill="#FED7D5" transform="translate(63.125,-0.375)"/>
<path d="M0 0 C3.63 0 7.26 0 11 0 C10.67 2.64 10.34 5.28 10 8 C11.65 8 13.3 8 15 8 C14.67 5.36 14.34 2.72 14 0 C17.3 0 20.6 0 24 0 C23.67 5.28 23.34 10.56 23 16 C23.66 16 24.32 16 25 16 C25 17.65 25 19.3 25 21 C21.04 21 17.08 21 13 21 C13 19.35 13 17.7 13 16 C13.66 16 14.32 16 15 16 C15 14.68 15 13.36 15 12 C13.35 12 11.7 12 10 12 C10.33 14.97 10.66 17.94 11 21 C7.37 21 3.74 21 0 21 C0 19.35 0 17.7 0 16 C0.66 16 1.32 16 2 16 C2 12.37 2 8.74 2 5 C1.34 5 0.68 5 0 5 C0 3.35 0 1.7 0 0 Z " fill="#C93308" transform="translate(45,58)"/>
<path d="M0 0 C3.10408807 -0.05807043 6.2080364 -0.09361914 9.3125 -0.125 C10.19357422 -0.14175781 11.07464844 -0.15851562 11.98242188 -0.17578125 C12.82998047 -0.18222656 13.67753906 -0.18867188 14.55078125 -0.1953125 C15.72120972 -0.21102295 15.72120972 -0.21102295 16.9152832 -0.22705078 C19 0 19 0 22 2 C22.1875 4.9375 22.1875 4.9375 22 8 C22 8.99 22 9.98 22 11 C22.33 11.33 22.66 11.66 23 12 C22.6875 15.5 22.6875 15.5 22 19 C19.59940183 20.20029908 18.10639351 20.11459743 15.4296875 20.09765625 C14.53378906 20.09443359 13.63789062 20.09121094 12.71484375 20.08789062 C11.77769531 20.07951172 10.84054688 20.07113281 9.875 20.0625 C8.93011719 20.05798828 7.98523437 20.05347656 7.01171875 20.04882812 C4.67441613 20.03702357 2.33723939 20.02055759 0 20 C0 18.68 0 17.36 0 16 C0.66 16 1.32 16 2 16 C2 12.37 2 8.74 2 5 C1.34 5 0.68 5 0 5 C0 3.35 0 1.7 0 0 Z " fill="#C8350C" transform="translate(43,22)"/>
<path d="M0 0 C0.84046875 0.01804687 1.6809375 0.03609375 2.546875 0.0546875 C4.61507395 0.10169202 6.68268441 0.17343276 8.75 0.25 C8.75 1.9 8.75 3.55 8.75 5.25 C8.09 5.25 7.43 5.25 6.75 5.25 C6.80220703 6.49716797 6.80220703 6.49716797 6.85546875 7.76953125 C6.88253906 8.85621094 6.90960938 9.94289063 6.9375 11.0625 C6.98970703 12.68091797 6.98970703 12.68091797 7.04296875 14.33203125 C6.75 17.25 6.75 17.25 5.42578125 19.07421875 C2.06268429 21.43387419 -0.97223967 21.35915012 -4.9375 21.3125 C-5.93136719 21.30347656 -6.92523438 21.29445313 -7.94921875 21.28515625 C-9.08810547 21.26775391 -9.08810547 21.26775391 -10.25 21.25 C-10.25 19.93 -10.25 18.61 -10.25 17.25 C-7.22265625 17.00585938 -7.22265625 17.00585938 -4.1953125 16.76171875 C-1.85480784 16.37606964 -1.85480784 16.37606964 -0.25 13.25 C-1.24 13.745 -1.24 13.745 -2.25 14.25 C-6.12424565 14.60872645 -8.39933906 14.81710729 -11.6875 12.625 C-13.72161336 9.53314769 -13.85605429 7.88632575 -13.25 4.25 C-9.80792371 -0.89460864 -5.60990503 -0.22790239 0 0 Z " fill="#C72F05" transform="translate(94.25,27.75)"/>
<path d="M0 0 C4.62 0 9.24 0 14 0 C14 2.31 14 4.62 14 7 C14.80569819 9.50346021 14.80569819 9.50346021 16 11.6875 C17.68428462 14.98004249 18 16.09975958 18 20 C14.7 20 11.4 20 8 20 C8.33 17.69 8.66 15.38 9 13 C7.02 13 5.04 13 3 13 C3.33 15.31 3.66 17.62 4 20 C1.36 20 -1.28 20 -4 20 C-4 18.35 -4 16.7 -4 15 C-3.34 15 -2.68 15 -2 15 C-1.66048381 13.43883181 -1.32867456 11.87598662 -1 10.3125 C-0.814375 9.44238281 -0.62875 8.57226562 -0.4375 7.67578125 C0.13446751 4.62947242 0.13446751 4.62947242 0 0 Z " fill="#C8350E" transform="translate(116,22)"/>
<path d="M0 0 C1.1446875 0.01933594 2.289375 0.03867187 3.46875 0.05859375 C5.18578125 0.06052734 5.18578125 0.06052734 6.9375 0.0625 C9.96875 0.49609375 9.96875 0.49609375 11.86328125 1.79296875 C13.65865574 4.5589874 13.14958878 7.3012753 12.96875 10.49609375 C13.62875 10.49609375 14.28875 10.49609375 14.96875 10.49609375 C14.96875 12.14609375 14.96875 13.79609375 14.96875 15.49609375 C12.03070004 15.57695751 9.09486925 15.63652205 6.15625 15.68359375 C4.90618164 15.72129883 4.90618164 15.72129883 3.63085938 15.75976562 C2.42719727 15.77426758 2.42719727 15.77426758 1.19921875 15.7890625 C0.09163208 15.81262817 0.09163208 15.81262817 -1.03833008 15.83666992 C-3.58929688 15.40072741 -4.48335641 14.53308837 -6.03125 12.49609375 C-5.76088853 9.52211759 -5.17678974 8.64163349 -3.03125 6.49609375 C-0.34285615 6.22617469 2.26016936 6.40872018 4.96875 6.49609375 C4.96875 5.50609375 4.96875 4.51609375 4.96875 3.49609375 C4.453125 3.66109375 3.9375 3.82609375 3.40625 3.99609375 C0.23511124 4.64658375 -2.80343334 4.55816715 -6.03125 4.49609375 C-4.30758932 1.38734859 -3.5868063 0.58701598 0 0 Z " fill="#CC441F" transform="translate(99.03125,63.50390625)"/>
<path d="M0 0 C3 1.75 3 1.75 5 4 C5 5.32 5 6.64 5 8 C1.37 8 -2.26 8 -6 8 C-5.01 9.485 -5.01 9.485 -4 11 C-3.443125 10.814375 -2.88625 10.62875 -2.3125 10.4375 C0.399133 9.92448835 2.34371039 10.3359276 5 11 C3.25894589 13.42233615 1.87470667 14.81559356 -1.09375 15.44140625 C-5.36896359 15.66229229 -7.48247384 15.34156727 -11.125 12.9375 C-13 10 -13 10 -13.0625 6.375 C-12 3 -12 3 -10.4375 1.0625 C-6.94087286 -0.4616708 -3.70838406 -0.66824346 0 0 Z " fill="#CD441F" transform="translate(85,64)"/>
<path d="M0 0 C2.33944736 0.28730055 4.6739143 0.61936779 7 1 C7 1.66 7 2.32 7 3 C8.32 3.33 9.64 3.66 11 4 C11 4.66 11 5.32 11 6 C11.99 6.33 12.98 6.66 14 7 C12.20963542 7.9765625 10.41927083 8.953125 8.62890625 9.9296875 C6.83381685 10.91410024 6.83381685 10.91410024 6 13 C5.34 13 4.68 13 4 13 C4 14.65 4 16.3 4 18 C4.66 18.33 5.32 18.66 6 19 C5.67 20.98 5.34 22.96 5 25 C4.67 25 4.34 25 4 25 C4 23.02 4 21.04 4 19 C3.01 19.33 2.02 19.66 1 20 C-2.27137992 14.76579213 -2.10643764 11.83394389 -1 6 C-5.62 6 -10.24 6 -15 6 C-15 5.67 -15 5.34 -15 5 C-12.36 5 -9.72 5 -7 5 C-6.67 4.01 -6.34 3.02 -6 2 C-5.67 2.99 -5.34 3.98 -5 5 C-4.34 5 -3.68 5 -3 5 C-2.690625 4.360625 -2.38125 3.72125 -2.0625 3.0625 C-1 1 -1 1 0 0 Z " fill="#FDF6F3" transform="translate(131,15)"/>
<path d="M0 0 C5.33333333 0 10.66666667 0 16 0 C16 2.31 16 4.62 16 7 C15.195625 7.12375 14.39125 7.2475 13.5625 7.375 C12.2940625 7.684375 12.2940625 7.684375 11 8 C10.67 8.66 10.34 9.32 10 10 C10.66 10 11.32 10 12 10 C12 11.65 12 13.3 12 15 C8.37 15 4.74 15 1 15 C1 13.35 1 11.7 1 10 C1.66 10 2.32 10 3 10 C3 8.35 3 6.7 3 5 C2.01 5 1.02 5 0 5 C0 3.35 0 1.7 0 0 Z " fill="#C93711" transform="translate(115,64)"/>
<path d="M0 0 C0 1.65 0 3.3 0 5 C0.99 5 1.98 5 3 5 C3 6.65 3 8.3 3 10 C2.01 10 1.02 10 0 10 C0 11.65 0 13.3 0 15 C0.99 15 1.98 15 3 15 C2.67 16.65 2.34 18.3 2 20 C-4.46086176 20.36570916 -4.46086176 20.36570916 -6.67578125 18.86328125 C-8.51717181 16.27229808 -8.62025888 14.14952655 -8.875 11 C-8.97554687 9.948125 -9.07609375 8.89625 -9.1796875 7.8125 C-9 5 -9 5 -7.63671875 3.19921875 C-5.17737058 1.39726198 -3.0999611 0 0 0 Z " fill="#C8340B" transform="translate(142,59)"/>
<path d="M0 0 C0 1.65 0 3.3 0 5 C0.99 5 1.98 5 3 5 C3 6.65 3 8.3 3 10 C2.01 10 1.02 10 0 10 C0.34786708 11.97536745 0.34786708 11.97536745 1 14 C1.66 14.33 2.32 14.66 3 15 C3 16.32 3 17.64 3 19 C-3.625 20.25 -3.625 20.25 -7 18 C-7.40843923 15.28796348 -7.13336867 12.7562858 -7 10 C-7.66 10 -8.32 10 -9 10 C-9 8.35 -9 6.7 -9 5 C-8.34 5 -7.68 5 -7 5 C-6.67 4.01 -6.34 3.02 -6 2 C-3.85412616 0.684787 -2.52986895 0 0 0 Z " fill="#C52E06" transform="translate(144,23)"/>
<path d="M0 0 C0.84046875 0.01804687 1.6809375 0.03609375 2.546875 0.0546875 C4.61507395 0.10169202 6.68268441 0.17343276 8.75 0.25 C8.42 1.57 8.09 2.89 7.75 4.25 C7.75 3.26 7.75 2.27 7.75 1.25 C3.295 1.745 3.295 1.745 -1.25 2.25 C-1.085 3.3225 -0.92 4.395 -0.75 5.5 C-0.25 9.25 -0.25 9.25 -0.25 13.25 C-3.34173752 14.79586876 -5.84429552 14.54359521 -9.25 14.25 C-11.6875 12.625 -11.6875 12.625 -13.25 10.25 C-13.8333135 6.75011898 -13.78179475 5.04483301 -11.796875 2.078125 C-7.98849519 -0.65549731 -4.56043194 -0.18526755 0 0 Z " fill="#C53108" transform="translate(94.25,27.75)"/>
<path d="M0 0 C0.82144986 2.86294679 1.10932369 5.3619829 1.0625 8.3359375 C1.05476563 9.15320312 1.04703125 9.97046875 1.0390625 10.8125 C1.0131399 12.51302265 0.98709933 14.21354351 0.9609375 15.9140625 C0.91841625 20.4213145 1.16545979 24.55336592 2 29 C2.10860264 30.74774475 2.17407159 32.49893577 2.1875 34.25 C2.20167969 35.10078125 2.21585938 35.9515625 2.23046875 36.828125 C2 39 2 39 0 41 C-5.93948605 28.56851756 -6.63030909 17.10504913 -2 4 C-1.35979793 2.65375948 -0.70182826 1.31516513 0 0 Z " fill="#FEF7F8" transform="translate(28,23)"/>
<path d="M0 0 C2.97 0 5.94 0 9 0 C9.33 4.95 9.66 9.9 10 15 C6.7 15 3.4 15 0 15 C0 10.05 0 5.1 0 0 Z " fill="#C93912" transform="translate(69,28)"/>
<path d="M0 0 C0.66 0 1.32 0 2 0 C6.842557 12.25051621 6.26136971 23.75500491 1.09375 35.68359375 C0.7328125 36.44800781 0.371875 37.21242187 0 38 C-1 35 -1 35 0 32 C0.09258777 30.49046994 0.13068134 28.9772091 0.1328125 27.46484375 C0.13410156 26.57216797 0.13539063 25.67949219 0.13671875 24.75976562 C0.13285156 23.82841797 0.12898437 22.89707031 0.125 21.9375 C0.12886719 21.03322266 0.13273438 20.12894531 0.13671875 19.19726562 C0.12886312 13.7022531 -0.19463084 8.35358998 -0.88330078 2.90063477 C-0.92181152 2.27342529 -0.96032227 1.64621582 -1 1 C-0.67 0.67 -0.34 0.34 0 0 Z " fill="#FEF8F8" transform="translate(161,24)"/>
<path d="M0 0 C3.5 0.25 3.5 0.25 5.5 2.25 C4.18 2.58 2.86 2.91 1.5 3.25 C1.5 3.91 1.5 4.57 1.5 5.25 C5.13 5.91 8.76 6.57 12.5 7.25 C12.83 6.59 13.16 5.93 13.5 5.25 C13.5 6.24 13.5 7.23 13.5 8.25 C-2.25894988 10.02565632 -2.25894988 10.02565632 -5.5 8 C-6.5 6.25 -6.5 6.25 -6.3125 4.1875 C-4.82166652 0.63243555 -3.86813424 0.2762953 0 0 Z " fill="#C42D07" transform="translate(99.5,69.75)"/>
<path d="M0 0 C-0.99 0.66 -1.98 1.32 -3 2 C-4.41760171 3.07607625 -5.81227898 4.1827647 -7.1875 5.3125 C-7.90292969 5.88613281 -8.61835937 6.45976562 -9.35546875 7.05078125 C-11.25761688 8.92570736 -11.25761688 8.92570736 -11.23828125 11.73046875 C-11.15964844 12.47941406 -11.08101562 13.22835938 -11 14 C-9.35 13.67 -7.7 13.34 -6 13 C-5.67 11.35 -5.34 9.7 -5 8 C-4.67 8 -4.34 8 -4 8 C-2.67713754 12.96073422 -2.91106803 17.91111512 -3 23 C-3.33 23 -3.66 23 -4 23 C-4.33 21.02 -4.66 19.04 -5 17 C-6.11375 16.855625 -7.2275 16.71125 -8.375 16.5625 C-12 16 -12 16 -14 15 C-14.49885001 11.84061659 -14.78068886 10.03308173 -14 7 C-10.05067931 2.48528511 -6.14623376 -0.52401282 0 0 Z " fill="#FEF5EC" transform="translate(47,14)"/>
<path d="M0 0 C7.1670282 -0.48590022 7.1670282 -0.48590022 11 1.75 C13 4 13 4 13 8 C9.37 8 5.74 8 2 8 C2 7.67 2 7.34 2 7 C3.65 7 5.3 7 7 7 C6.67 5.68 6.34 4.36 6 3 C3.03 2.505 3.03 2.505 0 2 C0 1.34 0 0.68 0 0 Z " fill="#C12503" transform="translate(77,64)"/>
<path d="M0 0 C2 1 2 1 2 1 Z M-2 1 C0 2 0 2 0 2 Z M-3 2 C-2.67 2 -2.34 2 -2 2 C-1.21114497 6.99608185 -1.21114497 6.99608185 -2 10 C-4.65452524 12.86903233 -7.61934174 15.04727321 -11 17 C-11.66 17 -12.32 17 -13 17 C-13.66 17.99 -14.32 18.98 -15 20 C-14.39473684 14.55263158 -14.39473684 14.55263158 -12.75 12.25 C-9.76414139 10.11724385 -6.45485458 9.15161819 -3 8 C-3 6.02 -3 4.04 -3 2 Z " fill="#FEDFD7" transform="translate(44,5)"/>
<path d="M0 0 C3.875 1.875 3.875 1.875 5 3 C4.71269945 5.33944736 4.38063221 7.6739143 4 10 C2.35 9.67 0.7 9.34 -1 9 C-1.09765625 2.84765625 -1.09765625 2.84765625 -1 1 C-0.67 0.67 -0.34 0.34 0 0 Z " fill="#FEF5E7" transform="translate(33,42)"/>
<path d="M0 0 C2 3 2 3 1.625 5.1875 C1.41875 5.785625 1.2125 6.38375 1 7 C-0.0725 6.67 -1.145 6.34 -2.25 6 C-5.99731601 4.8282249 -5.99731601 4.8282249 -10 5 C-10.33 4.01 -10.66 3.02 -11 2 C-7.37 2 -3.74 2 0 2 C0 1.34 0 0.68 0 0 Z " fill="#F6BCB7" transform="translate(90,70)"/>
<path d="M0 0 C0 0.66 0 1.32 0 2 C0.66 2 1.32 2 2 2 C2 3.32 2 4.64 2 6 C-0.64 6 -3.28 6 -6 6 C-6 4.35 -6 2.7 -6 1 C-4 0 -4 0 0 0 Z " fill="#C32A05" transform="translate(118,36)"/>
<path d="M0 0 C1.98 0 3.96 0 6 0 C5.67 2.31 5.34 4.62 5 7 C8.3 7 11.6 7 15 7 C15 7.33 15 7.66 15 8 C11.04 8 7.08 8 3 8 C1.53867783 5.07735566 0.65900754 3.07536854 0 0 Z " fill="#EFBBAB" transform="translate(119,35)"/>
<path d="M0 0 C0.33 0.99 0.66 1.98 1 3 C2.32 3 3.64 3 5 3 C5 4.65 5 6.3 5 8 C4.34 8 3.68 8 3 8 C3 9.65 3 11.3 3 13 C2.67 13 2.34 13 2 13 C2 11.35 2 9.7 2 8 C1.01 8 0.02 8 -1 8 C-0.67 5.36 -0.34 2.72 0 0 Z " fill="#F8C1BE" transform="translate(113,66)"/>
<path d="M0 0 C0 0.66 0 1.32 0 2 C0.99 2.33 1.98 2.66 3 3 C3 3.66 3 4.32 3 5 C-0.63 5.33 -4.26 5.66 -8 6 C-8 5.34 -8 4.68 -8 4 C-2.58823529 0 -2.58823529 0 0 0 Z " fill="#FEEBEE" transform="translate(111,5)"/>
<path d="M0 0 C0.66 0 1.32 0 2 0 C2 0.99 2 1.98 2 3 C4.64 3 7.28 3 10 3 C10.33 2.01 10.66 1.02 11 0 C11 1.65 11 3.3 11 5 C7.37 5 3.74 5 0 5 C0 3.35 0 1.7 0 0 Z " fill="#C7391E" transform="translate(45,74)"/>
<path d="M0 0 C2.02558881 3.34939881 2.21738987 5.86962551 2.125 9.75 C2.10695313 10.73484375 2.08890625 11.7196875 2.0703125 12.734375 C2.03550781 13.85585937 2.03550781 13.85585937 2 15 C-0.125 13.6875 -0.125 13.6875 -2 11 C-1.75051478 7.23060379 -0.93254694 3.65457584 0 0 Z " fill="#FEE3E8" transform="translate(30,54)"/>
<path d="M0 0 C2.1519437 3.22791555 2.20086443 4.28400809 2 8 C2.66 8 3.32 8 4 8 C4 9.65 4 11.3 4 13 C3.34 13 2.68 13 2 13 C1.67 14.32 1.34 15.64 1 17 C0.83141902 14.9168207 0.66520745 12.83344956 0.5 10.75 C0.4071875 9.58984375 0.314375 8.4296875 0.21875 7.234375 C0.05595356 4.82731342 0 2.41256049 0 0 Z " fill="#FEE8E2" transform="translate(66,25)"/>
<path d="M0 0 C2.31 0 4.62 0 7 0 C7 1.32 7 2.64 7 4 C4.69 4 2.38 4 0 4 C0 2.68 0 1.36 0 0 Z " fill="#C1290D" transform="translate(70,22)"/>
<path d="M0 0 C0.66 0 1.32 0 2 0 C2.66 1.98 3.32 3.96 4 6 C3.34 6 2.68 6 2 6 C1.67 7.65 1.34 9.3 1 11 C0.67 11 0.34 11 0 11 C-0.19406478 9.35492782 -0.38007935 7.70890406 -0.5625 6.0625 C-0.66691406 5.14597656 -0.77132812 4.22945312 -0.87890625 3.28515625 C-0.91886719 2.53105469 -0.95882812 1.77695312 -1 1 C-0.67 0.67 -0.34 0.34 0 0 Z " fill="#FEEBEB" transform="translate(161,24)"/>
<path d="M0 0 C-1.625 2 -1.625 2 -4 4 C-7.25 4.25 -7.25 4.25 -10 4 C-10 3.01 -10 2.02 -10 1 C-6.42181037 -1.33958553 -4.07775191 -0.9267618 0 0 Z " fill="#BF2605" transform="translate(90,75)"/>
<path d="M0 0 C-0.66 1.32 -1.32 2.64 -2 4 C-4.64 4 -7.28 4 -10 4 C-9.67 3.01 -9.34 2.02 -9 1 C-2.25 0 -2.25 0 0 0 Z " fill="#F8CABE" transform="translate(94,41)"/>
<path d="M0 0 C2 1 2 1 2 1 Z M-2 1 C0 2 0 2 0 2 Z M-3 2 C-2.67 2 -2.34 2 -2 2 C-1.38341969 7.19689119 -1.38341969 7.19689119 -2 10 C-4.06225326 12.17596146 -6.36234546 13.60042821 -9 15 C-7.79618552 12.50638429 -6.54571278 10.31856917 -5 8 C-4.34 8 -3.68 8 -3 8 C-3 6.02 -3 4.04 -3 2 Z " fill="#FEEAE0" transform="translate(44,5)"/>
<path d="M0 0 C2.0625 0.4375 2.0625 0.4375 4 1 C3.67 2.65 3.34 4.3 3 6 C1.68 6 0.36 6 -1 6 C-1.042721 4.33388095 -1.04063832 2.66617115 -1 1 C-0.67 0.67 -0.34 0.34 0 0 Z " fill="#FBDBCF" transform="translate(90,32)"/>
<path d="M0 0 C1.65 0 3.3 0 5 0 C5 1.32 5 2.64 5 4 C4.01 4 3.02 4 2 4 C2 5.65 2 7.3 2 9 C1.67 9 1.34 9 1 9 C0.67 6.03 0.34 3.06 0 0 Z " fill="#F4B5AC" transform="translate(55,70)"/>
<path d="M0 0 C0.99 0 1.98 0 3 0 C3.33 2.64 3.66 5.28 4 8 C2.35 8 0.7 8 -1 8 C-0.67 5.36 -0.34 2.72 0 0 Z " fill="#F2B5AB" transform="translate(56,58)"/>
<path d="M0 0 C7.50769231 -0.36923077 7.50769231 -0.36923077 10 1.5 C10.495 2.2425 10.495 2.2425 11 3 C9.741875 3.020625 8.48375 3.04125 7.1875 3.0625 C6.47980469 3.07410156 5.77210937 3.08570312 5.04296875 3.09765625 C3 3 3 3 0 2 C0 1.34 0 0.68 0 0 Z " fill="#C32F0C" transform="translate(77,64)"/>
<path d="M0 0 C2.78637633 4.1795645 1.79562512 6.14668677 1 11 C0.34 10.67 -0.32 10.34 -1 10 C-1.02689216 8.52093108 -1.04634621 7.04172517 -1.0625 5.5625 C-1.07410156 4.73878906 -1.08570312 3.91507813 -1.09765625 3.06640625 C-1 1 -1 1 0 0 Z " fill="#FDD9DD" transform="translate(21,38)"/>
<path d="M0 0 C2.97 0 5.94 0 9 0 C9 0.66 9 1.32 9 2 C2.25 3.125 2.25 3.125 0 2 C0 1.34 0 0.68 0 0 Z " fill="#FEF7F7" transform="translate(92,17)"/>
<path d="M0 0 C0.66 0 1.32 0 2 0 C2 0.66 2 1.32 2 2 C4.31 2.33 6.62 2.66 9 3 C8.67 3.66 8.34 4.32 8 5 C4.7 5 1.4 5 -2 5 C-2 2 -2 2 0 0 Z " fill="#FEE6E7" transform="translate(93,13)"/>
<path d="M0 0 C0.99 0.33 1.98 0.66 3 1 C3 2.32 3 3.64 3 5 C1.68 5 0.36 5 -1 5 C-0.67 3.35 -0.34 1.7 0 0 Z " fill="#FEFDFC" transform="translate(34,45)"/>
<path d="M0 0 C2.475 0.495 2.475 0.495 5 1 C4.67 1.99 4.34 2.98 4 4 C2.68 4 1.36 4 0 4 C0 2.68 0 1.36 0 0 Z " fill="#FDD8CE" transform="translate(53,34)"/>
<path d="M0 0 C2.64 0 5.28 0 8 0 C7.38125 0.45375 6.7625 0.9075 6.125 1.375 C3.94080167 2.97108919 3.94080167 2.97108919 2 5 C1.34 3.35 0.68 1.7 0 0 Z " fill="#FBC4C3" transform="translate(91,68)"/>
<path d="M0 0 C0.33 0 0.66 0 1 0 C1 5.28 1 10.56 1 16 C0.67 16 0.34 16 0 16 C0 10.72 0 5.44 0 0 Z " fill="#FFD7DA" transform="translate(170,33)"/>
<path d="M0 0 C1 4 1 4 1 4 Z " fill="#FDD9DE" transform="translate(19,48)"/>
<path d="M0 0 C1 4 1 4 1 4 Z " fill="#FED0D6" transform="translate(19,34)"/>
<path d="" fill="#FDD0D2" transform="translate(0,0)"/>
<path d="" fill="#FEE4E6" transform="translate(0,0)"/>
<path d="" fill="#FFE2E4" transform="translate(0,0)"/>
<path d="" fill="#FFE0E3" transform="translate(0,0)"/>
<path d="M0 0 C2 1 2 1 2 1 Z " fill="#FFDBDC" transform="translate(89,118)"/>
<path d="M0 0 C2 1 2 1 2 1 Z " fill="#FBCDCF" transform="translate(105,117)"/>
<path d="M0 0 C2 1 2 1 2 1 Z " fill="#FCCCCD" transform="translate(86,116)"/>
<path d="M0 0 C2 1 2 1 2 1 Z " fill="#FEDBDE" transform="translate(108,115)"/>
<path d="M0 0 C2 1 2 1 2 1 Z " fill="#FDCBCC" transform="translate(83,114)"/>
<path d="M0 0 C2 1 2 1 2 1 Z " fill="#FDD1D1" transform="translate(80,112)"/>
<path d="M0 0 C2 1 2 1 2 1 Z " fill="#FEDCDD" transform="translate(75,109)"/>
<path d="M0 0 C2 1 2 1 2 1 Z " fill="#FEDCDF" transform="translate(120,107)"/>
<path d="M0 0 C2 1 2 1 2 1 Z " fill="#FCCED0" transform="translate(123,105)"/>
<path d="M0 0 C2 1 2 1 2 1 Z " fill="#FDCDCE" transform="translate(65,103)"/>
<path d="M0 0 C2 1 2 1 2 1 Z " fill="#FDCED0" transform="translate(63,102)"/>
<path d="M0 0 C2 1 2 1 2 1 Z " fill="#FFDDDE" transform="translate(131,100)"/>
<path d="M0 0 C2 1 2 1 2 1 Z " fill="#FECCD1" transform="translate(58,99)"/>
<path d="M0 0 C2 1 2 1 2 1 Z " fill="#FECCD1" transform="translate(134,98)"/>
<path d="M0 0 C2 1 2 1 2 1 Z " fill="#FECCD2" transform="translate(56,98)"/>
<path d="M0 0 C2 1 2 1 2 1 Z " fill="#FDCDD1" transform="translate(137,96)"/>
<path d="M0 0 C2 1 2 1 2 1 Z " fill="#FDCDD2" transform="translate(47,92)"/>
<path d="" fill="#FFE0E2" transform="translate(0,0)"/>
<path d="" fill="#FFDCE3" transform="translate(0,0)"/>
<path d="" fill="#FECDD4" transform="translate(0,0)"/>
<path d="" fill="#FFE0E3" transform="translate(0,0)"/>
<path d="" fill="#FED2D4" transform="translate(0,0)"/>
<path d="" fill="#FED2D4" transform="translate(0,0)"/>
<path d="" fill="#FEDCE2" transform="translate(0,0)"/>
<path d="" fill="#FEDDE4" transform="translate(0,0)"/>
<path d="" fill="#FFE1E3" transform="translate(0,0)"/>
<path d="" fill="#FDCCD4" transform="translate(0,0)"/>
<path d="" fill="#FED5D7" transform="translate(0,0)"/>
<path d="" fill="#FEDDE2" transform="translate(0,0)"/>
<path d="" fill="#FED2D4" transform="translate(0,0)"/>
<path d="M0 0 C2 1 2 1 2 1 Z " fill="#FDCBD1" transform="translate(40,3)"/>
<path d="M0 0 C2 1 2 1 2 1 Z " fill="#FDCED2" transform="translate(106,2)"/>
<path d="M0 0 C2 1 2 1 2 1 Z " fill="#FECFD4" transform="translate(44,1)"/>
<path d="M0 0 C2 1 2 1 2 1 Z " fill="#FDCFD2" transform="translate(142,0)"/>
<path d="M0 0 C2 1 2 1 2 1 Z " fill="#FDCCD2" transform="translate(78,0)"/>
<path d="M0 0 C2 1 2 1 2 1 Z " fill="#FDCDD2" transform="translate(46,0)"/>
<path d="" fill="#FFE9EB" transform="translate(0,0)"/>
<path d="" fill="#FFE8E9" transform="translate(0,0)"/>
<path d="" fill="#FCCDCF" transform="translate(0,0)"/>
<path d="" fill="#FDCECD" transform="translate(0,0)"/>
<path d="" fill="#FBCECF" transform="translate(0,0)"/>
<path d="" fill="#FCCBCB" transform="translate(0,0)"/>
<path d="" fill="#FCCDCE" transform="translate(0,0)"/>
<path d="" fill="#FED3D6" transform="translate(0,0)"/>
<path d="" fill="#FECECF" transform="translate(0,0)"/>
<path d="" fill="#FDCDD0" transform="translate(0,0)"/>
<path d="" fill="#FFD3D6" transform="translate(0,0)"/>
<path d="" fill="#FED3D3" transform="translate(0,0)"/>
<path d="" fill="#FBCCD0" transform="translate(0,0)"/>
<path d="" fill="#FCCECC" transform="translate(0,0)"/>
<path d="" fill="#FBCCD0" transform="translate(0,0)"/>
<path d="" fill="#FDCCD0" transform="translate(0,0)"/>
<path d="" fill="#FCCCCC" transform="translate(0,0)"/>
<path d="" fill="#FCCCCC" transform="translate(0,0)"/>
<path d="" fill="#FCCED0" transform="translate(0,0)"/>
<path d="" fill="#FED2D4" transform="translate(0,0)"/>
<path d="" fill="#FCCCCC" transform="translate(0,0)"/>
<path d="" fill="#FCCED0" transform="translate(0,0)"/>
<path d="" fill="#FCCCCC" transform="translate(0,0)"/>
<path d="" fill="#FDCDCF" transform="translate(0,0)"/>
<path d="" fill="#FDCDD1" transform="translate(0,0)"/>
<path d="" fill="#FFD4D5" transform="translate(0,0)"/>
<path d="" fill="#FCCCCF" transform="translate(0,0)"/>
<path d="" fill="#FECCD1" transform="translate(0,0)"/>
<path d="" fill="#FDCCCF" transform="translate(0,0)"/>
<path d="" fill="#FDCED0" transform="translate(0,0)"/>
<path d="" fill="#FED4D8" transform="translate(0,0)"/>
<path d="" fill="#FECCD2" transform="translate(0,0)"/>
<path d="" fill="#FDCED0" transform="translate(0,0)"/>
<path d="" fill="#FECCD2" transform="translate(0,0)"/>
<path d="" fill="#FDCED0" transform="translate(0,0)"/>
<path d="" fill="#FECCD2" transform="translate(0,0)"/>
<path d="" fill="#FDCED2" transform="translate(0,0)"/>
<path d="" fill="#FECED2" transform="translate(0,0)"/>
<path d="" fill="#FECED0" transform="translate(0,0)"/>
<path d="" fill="#FECED0" transform="translate(0,0)"/>
<path d="" fill="#FDCCD3" transform="translate(0,0)"/>
<path d="" fill="#FECED0" transform="translate(0,0)"/>
<path d="" fill="#FDCED3" transform="translate(0,0)"/>
<path d="" fill="#FECED0" transform="translate(0,0)"/>
<path d="" fill="#FDCED3" transform="translate(0,0)"/>
<path d="" fill="#FECED0" transform="translate(0,0)"/>
<path d="" fill="#FFCED3" transform="translate(0,0)"/>
<path d="" fill="#FECED0" transform="translate(0,0)"/>
<path d="" fill="#FFCED3" transform="translate(0,0)"/>
<path d="" fill="#FECED0" transform="translate(0,0)"/>
<path d="" fill="#FECED0" transform="translate(0,0)"/>
<path d="" fill="#FECED0" transform="translate(0,0)"/>
<path d="" fill="#FECED0" transform="translate(0,0)"/>
<path d="" fill="#FFD0D4" transform="translate(0,0)"/>
<path d="" fill="#FDCED2" transform="translate(0,0)"/>
<path d="" fill="#FFCCD3" transform="translate(0,0)"/>
<path d="" fill="#FDCED2" transform="translate(0,0)"/>
<path d="" fill="#FDCCD3" transform="translate(0,0)"/>
<path d="" fill="#FDCED2" transform="translate(0,0)"/>
<path d="" fill="#FDCCD3" transform="translate(0,0)"/>
<path d="" fill="#FDCCD3" transform="translate(0,0)"/>
<path d="" fill="#FDD0D2" transform="translate(0,0)"/>
<path d="" fill="#FDD0D2" transform="translate(0,0)"/>
<path d="" fill="#FED2D2" transform="translate(0,0)"/>
<path d="" fill="#FED2DA" transform="translate(0,0)"/>
<path d="" fill="#FDD0D1" transform="translate(0,0)"/>
<path d="" fill="#FECCD2" transform="translate(0,0)"/>
<path d="" fill="#FDD0D3" transform="translate(0,0)"/>
<path d="" fill="#FED0D6" transform="translate(0,0)"/>
<path d="" fill="#FECED4" transform="translate(0,0)"/>
<path d="" fill="#FDD0D2" transform="translate(0,0)"/>
<path d="" fill="#FDCCD3" transform="translate(0,0)"/>
<path d="" fill="#FBD2D6" transform="translate(0,0)"/>
<path d="" fill="#FED6DA" transform="translate(0,0)"/>
<path d="" fill="#FED4DA" transform="translate(0,0)"/>
<path d="" fill="#FCCCD2" transform="translate(0,0)"/>
<path d="" fill="#FCCCD0" transform="translate(0,0)"/>
<path d="" fill="#FFEEED" transform="translate(0,0)"/>
<path d="" fill="#FED4DA" transform="translate(0,0)"/>
<path d="" fill="#FDD6D9" transform="translate(0,0)"/>
<path d="" fill="#FECCD4" transform="translate(0,0)"/>
<path d="" fill="#FDD0D3" transform="translate(0,0)"/>
<path d="" fill="#FDD0D3" transform="translate(0,0)"/>
<path d="" fill="#FECED2" transform="translate(0,0)"/>
<path d="" fill="#FDD0D3" transform="translate(0,0)"/>
<path d="" fill="#FFD2D3" transform="translate(0,0)"/>
<path d="" fill="#FECCD2" transform="translate(0,0)"/>
<path d="" fill="#FECCD2" transform="translate(0,0)"/>
<path d="" fill="#FECED2" transform="translate(0,0)"/>
<path d="" fill="#FDCED1" transform="translate(0,0)"/>
<path d="" fill="#FBD7DA" transform="translate(0,0)"/>
<path d="" fill="#FECED2" transform="translate(0,0)"/>
<path d="" fill="#FDD0D1" transform="translate(0,0)"/>
<path d="" fill="#FDCFD4" transform="translate(0,0)"/>
<path d="" fill="#FFD1D6" transform="translate(0,0)"/>
<path d="" fill="#FECED2" transform="translate(0,0)"/>
<path d="" fill="#FDD2D5" transform="translate(0,0)"/>
<path d="" fill="#FDCFD4" transform="translate(0,0)"/>
<path d="" fill="#FFD3DC" transform="translate(0,0)"/>
<path d="" fill="#FECED4" transform="translate(0,0)"/>
<path d="" fill="#FDCED1" transform="translate(0,0)"/>
<path d="" fill="#FDCFD6" transform="translate(0,0)"/>
<path d="" fill="#FFCFD2" transform="translate(0,0)"/>
<path d="" fill="#FECED4" transform="translate(0,0)"/>
<path d="" fill="#FDCED1" transform="translate(0,0)"/>
<path d="" fill="#FDD1D8" transform="translate(0,0)"/>
<path d="" fill="#FFCFD2" transform="translate(0,0)"/>
<path d="" fill="#FED2D6" transform="translate(0,0)"/>
<path d="" fill="#FDCED1" transform="translate(0,0)"/>
<path d="" fill="#FFD7DC" transform="translate(0,0)"/>
<path d="" fill="#FFD5DA" transform="translate(0,0)"/>
<path d="" fill="#FECCD2" transform="translate(0,0)"/>
<path d="" fill="#FFD0D7" transform="translate(0,0)"/>
<path d="" fill="#FDCFD4" transform="translate(0,0)"/>
<path d="" fill="#FDCDD2" transform="translate(0,0)"/>
<path d="" fill="#FCCCD2" transform="translate(0,0)"/>
<path d="" fill="#FFD6D7" transform="translate(0,0)"/>
<path d="" fill="#FDCFD4" transform="translate(0,0)"/>
<path d="" fill="#FDCDD2" transform="translate(0,0)"/>
<path d="" fill="#FCCCD0" transform="translate(0,0)"/>
<path d="" fill="#FDCED3" transform="translate(0,0)"/>
<path d="" fill="#FDD1DA" transform="translate(0,0)"/>
<path d="" fill="#FDC9CE" transform="translate(0,0)"/>
<path d="" fill="#FED2D8" transform="translate(0,0)"/>
<path d="" fill="#FDCDD2" transform="translate(0,0)"/>
<path d="" fill="#FDCDD2" transform="translate(0,0)"/>
<path d="" fill="#FDCFD3" transform="translate(0,0)"/>
<path d="" fill="#FDCBD2" transform="translate(0,0)"/>
<path d="" fill="#FCCCD2" transform="translate(0,0)"/>
<path d="" fill="#FFE8EB" transform="translate(0,0)"/>
<path d="" fill="#FDCDD2" transform="translate(0,0)"/>
<path d="" fill="#FFD1DA" transform="translate(0,0)"/>
<path d="" fill="#FDD0D3" transform="translate(0,0)"/>
</svg>
